<svg xmlns="http://www.w3.org/2000/svg" xmlns:xlink="http://www.w3.org/1999/xlink" width="1440" viewBox="0 0 1440 810" height="810" version="1.0"><defs><g id="b"><path d="M 12.234375 -25.375 C 13.234375 -25.375 14.175781 -25.179688 15.0625 -24.796875 C 15.945312 -24.410156 16.71875 -23.894531 17.375 -23.25 C 18.03125 -22.613281 18.546875 -21.859375 18.921875 -20.984375 C 19.304688 -20.109375 19.5 -19.171875 19.5 -18.171875 C 19.5 -17.171875 19.304688 -16.226562 18.921875 -15.34375 C 18.546875 -14.46875 18.03125 -13.707031 17.375 -13.0625 C 16.71875 -12.414062 15.945312 -11.90625 15.0625 -11.53125 C 14.175781 -11.164062 13.234375 -10.984375 12.234375 -10.984375 L 5.65625 -10.953125 L 5.65625 0 L 1.9375 0 L 1.9375 -25.375 Z M 12.234375 -14.453125 C 12.734375 -14.453125 13.203125 -14.550781 13.640625 -14.75 C 14.085938 -14.957031 14.476562 -15.226562 14.8125 -15.5625 C 15.144531 -15.894531 15.40625 -16.296875 15.59375 -16.765625 C 15.789062 -17.234375 15.890625 -17.726562 15.890625 -18.25 C 15.890625 -18.769531 15.789062 -19.253906 15.59375 -19.703125 C 15.40625 -20.160156 15.144531 -20.5625 14.8125 -20.90625 C 14.476562 -21.257812 14.085938 -21.535156 13.640625 -21.734375 C 13.203125 -21.941406 12.734375 -22.046875 12.234375 -22.046875 L 5.65625 -22.046875 L 5.65625 -14.453125 Z M 12.234375 -14.453125"/></g><g id="c"><path d="M 13.78125 -25.734375 C 15.5 -25.734375 17.117188 -25.382812 18.640625 -24.6875 C 20.171875 -24 21.5 -23.0625 22.625 -21.875 C 23.757812 -20.695312 24.660156 -19.3125 25.328125 -17.71875 C 25.992188 -16.132812 26.328125 -14.460938 26.328125 -12.703125 C 26.328125 -10.910156 25.992188 -9.226562 25.328125 -7.65625 C 24.660156 -6.082031 23.753906 -4.703125 22.609375 -3.515625 C 21.460938 -2.335938 20.125 -1.398438 18.59375 -0.703125 C 17.070312 -0.015625 15.453125 0.328125 13.734375 0.328125 C 12.015625 0.328125 10.390625 -0.015625 8.859375 -0.703125 C 7.335938 -1.398438 6.007812 -2.335938 4.875 -3.515625 C 3.75 -4.703125 2.859375 -6.082031 2.203125 -7.65625 C 1.546875 -9.226562 1.21875 -10.910156 1.21875 -12.703125 C 1.21875 -14.460938 1.546875 -16.132812 2.203125 -17.71875 C 2.859375 -19.3125 3.757812 -20.695312 4.90625 -21.875 C 6.050781 -23.0625 7.382812 -24 8.90625 -24.6875 C 10.4375 -25.382812 12.0625 -25.734375 13.78125 -25.734375 Z M 13.78125 -3.21875 C 14.988281 -3.21875 16.125 -3.460938 17.1875 -3.953125 C 18.25 -4.441406 19.171875 -5.113281 19.953125 -5.96875 C 20.742188 -6.832031 21.363281 -7.84375 21.8125 -9 C 22.269531 -10.15625 22.5 -11.390625 22.5 -12.703125 C 22.5 -14.015625 22.269531 -15.242188 21.8125 -16.390625 C 21.363281 -17.535156 20.742188 -18.535156 19.953125 -19.390625 C 19.171875 -20.253906 18.25 -20.929688 17.1875 -21.421875 C 16.125 -21.910156 14.988281 -22.15625 13.78125 -22.15625 C 12.5625 -22.15625 11.421875 -21.910156 10.359375 -21.421875 C 9.296875 -20.929688 8.367188 -20.253906 7.578125 -19.390625 C 6.796875 -18.535156 6.171875 -17.535156 5.703125 -16.390625 C 5.242188 -15.242188 5.015625 -14.015625 5.015625 -12.703125 C 5.015625 -11.390625 5.242188 -10.15625 5.703125 -9 C 6.171875 -7.84375 6.796875 -6.832031 7.578125 -5.96875 C 8.367188 -5.113281 9.296875 -4.441406 10.359375 -3.953125 C 11.421875 -3.460938 12.5625 -3.21875 13.78125 -3.21875 Z M 13.78125 -3.21875"/></g><g id="d"><path d="M 22.9375 0 L 18.25 0 L 10.265625 -10.953125 L 5.828125 -10.953125 L 5.828125 0 L 2.078125 0 L 2.078125 -25.375 L 12.375 -25.375 C 13.382812 -25.375 14.332031 -25.179688 15.21875 -24.796875 C 16.113281 -24.410156 16.890625 -23.894531 17.546875 -23.25 C 18.203125 -22.613281 18.71875 -21.859375 19.09375 -20.984375 C 19.476562 -20.109375 19.671875 -19.171875 19.671875 -18.171875 C 19.671875 -17.335938 19.539062 -16.550781 19.28125 -15.8125 C 19.019531 -15.070312 18.65625 -14.40625 18.1875 -13.8125 C 17.726562 -13.21875 17.175781 -12.695312 16.53125 -12.25 C 15.882812 -11.8125 15.179688 -11.484375 14.421875 -11.265625 Z M 12.375 -14.453125 C 12.875 -14.453125 13.347656 -14.550781 13.796875 -14.75 C 14.253906 -14.957031 14.644531 -15.226562 14.96875 -15.5625 C 15.289062 -15.894531 15.546875 -16.296875 15.734375 -16.765625 C 15.929688 -17.234375 16.03125 -17.726562 16.03125 -18.25 C 16.03125 -18.769531 15.929688 -19.253906 15.734375 -19.703125 C 15.546875 -20.160156 15.289062 -20.5625 14.96875 -20.90625 C 14.644531 -21.257812 14.253906 -21.535156 13.796875 -21.734375 C 13.347656 -21.941406 12.875 -22.046875 12.375 -22.046875 L 5.828125 -22.046875 L 5.828125 -14.421875 Z M 12.375 -14.453125"/></g><g id="e"><path d="M 7.046875 -22 L 0.171875 -22 L 0.171875 -25.375 L 17.671875 -25.375 L 17.671875 -22 L 10.765625 -22 L 10.765625 0 L 7.046875 0 Z M 7.046875 -22"/></g><g id="f"><path d="M 19.109375 -25.375 L 19.109375 -22 L 5.71875 -22 L 5.71875 -15.09375 L 17.859375 -15.09375 L 17.859375 -11.625 L 5.71875 -11.625 L 5.71875 0 L 2 0 L 2 -25.375 Z M 19.109375 -25.375"/></g><g id="g"><path d="M 2.109375 0 L 2.109375 -25.375 L 5.875 -25.375 L 5.875 -3.46875 L 17.609375 -3.46875 L 17.609375 0 Z M 2.109375 0"/></g><g id="h"><path d="M 8.875 -22.296875 L 8.875 -3.078125 L 10.734375 -3.078125 L 10.734375 0 L 3.25 0 L 3.25 -3.078125 L 5.15625 -3.078125 L 5.15625 -22.296875 L 3.25 -22.296875 L 3.25 -25.375 L 10.734375 -25.375 L 10.734375 -22.296875 Z M 8.875 -22.296875"/></g><clipPath id="a"><path d="M 573.425781 21.367188 L 866.675781 21.367188 L 866.675781 131.617188 L 573.425781 131.617188 Z M 573.425781 21.367188"/></clipPath></defs><path fill="#FFF" d="M-144 -81H1584V891H-144z"/><path fill="#FFF" d="M-144 -81H1584V891H-144z"/><path fill="#2F2C2B" d="M-144 -81H1584V891H-144z"/><path fill="#F9C260" d="M 850.003906 104.132812 C 849.207031 104.132812 848.558594 104.78125 848.558594 105.574219 C 848.558594 106.375 849.207031 107.019531 850.003906 107.019531 C 850.800781 107.019531 851.445312 106.375 851.445312 105.574219 C 851.449219 104.78125 850.800781 104.132812 850.003906 104.132812 Z M 850.003906 104.132812"/><path fill="#F9C260" d="M 851.449219 48.132812 C 851.449219 48.324219 851.410156 48.507812 851.339844 48.6875 C 851.265625 48.863281 851.160156 49.019531 851.027344 49.15625 C 850.890625 49.289062 850.734375 49.394531 850.554688 49.46875 C 850.378906 49.539062 850.195312 49.578125 850.003906 49.578125 C 849.8125 49.578125 849.628906 49.539062 849.449219 49.46875 C 849.273438 49.394531 849.117188 49.289062 848.980469 49.15625 C 848.847656 49.019531 848.742188 48.863281 848.667969 48.6875 C 848.59375 48.507812 848.558594 48.324219 848.558594 48.132812 C 848.558594 47.941406 848.59375 47.757812 848.667969 47.582031 C 848.742188 47.402344 848.847656 47.246094 848.980469 47.113281 C 849.117188 46.976562 849.273438 46.871094 849.449219 46.800781 C 849.628906 46.726562 849.8125 46.6875 850.003906 46.6875 C 850.195312 46.6875 850.378906 46.726562 850.554688 46.800781 C 850.734375 46.871094 850.890625 46.976562 851.027344 47.113281 C 851.160156 47.246094 851.265625 47.402344 851.339844 47.582031 C 851.410156 47.757812 851.449219 47.941406 851.449219 48.132812 Z M 851.449219 48.132812"/><path fill="#F9C260" d="M 590.738281 48.132812 C 590.738281 48.324219 590.703125 48.507812 590.628906 48.6875 C 590.554688 48.863281 590.449219 49.019531 590.316406 49.15625 C 590.179688 49.289062 590.023438 49.394531 589.847656 49.46875 C 589.667969 49.539062 589.484375 49.578125 589.292969 49.578125 C 589.101562 49.578125 588.917969 49.539062 588.738281 49.46875 C 588.5625 49.394531 588.40625 49.289062 588.269531 49.15625 C 588.136719 49.019531 588.03125 48.863281 587.957031 48.6875 C 587.882812 48.507812 587.847656 48.324219 587.847656 48.132812 C 587.847656 47.941406 587.882812 47.757812 587.957031 47.582031 C 588.03125 47.402344 588.136719 47.246094 588.269531 47.113281 C 588.40625 46.976562 588.5625 46.871094 588.738281 46.800781 C 588.917969 46.726562 589.101562 46.6875 589.292969 46.6875 C 589.484375 46.6875 589.667969 46.726562 589.847656 46.800781 C 590.023438 46.871094 590.179688 46.976562 590.316406 47.113281 C 590.449219 47.246094 590.554688 47.402344 590.628906 47.582031 C 590.703125 47.757812 590.738281 47.941406 590.738281 48.132812 Z M 590.738281 48.132812"/><path fill="#F9C260" d="M 589.292969 104.132812 C 588.496094 104.132812 587.847656 104.78125 587.847656 105.574219 C 587.847656 106.375 588.496094 107.019531 589.292969 107.019531 C 590.089844 107.019531 590.738281 106.375 590.738281 105.574219 C 590.738281 104.78125 590.089844 104.132812 589.292969 104.132812 Z M 589.292969 104.132812"/><g clip-path="url(#a)"><path fill="#F9C260" d="M 866.269531 52.796875 C 866.269531 50.011719 865.730469 47.320312 864.777344 44.910156 C 863.339844 41.28125 860.992188 38.273438 858.085938 36.148438 C 855.179688 34.03125 851.664062 32.792969 847.949219 32.792969 L 769.667969 32.792969 C 769.359375 32.753906 769.042969 32.722656 768.714844 32.722656 L 768.46875 32.726562 L 768.472656 32.726562 C 767.808594 32.753906 767.132812 32.773438 766.449219 32.792969 L 749.277344 32.792969 C 748.308594 32.78125 747.410156 32.773438 746.597656 32.773438 C 746.039062 32.773438 743.894531 32.773438 740.773438 32.773438 C 739.933594 32.726562 739.113281 32.667969 738.335938 32.597656 C 737.414062 32.507812 735.542969 32.28125 733.679688 31.984375 C 731.824219 31.691406 729.929688 31.308594 729.097656 30.980469 C 726.238281 29.867188 724.167969 27.894531 722.816406 26.1875 C 722.140625 25.339844 721.644531 24.554688 721.320312 23.992188 C 721.15625 23.710938 721.039062 23.480469 720.960938 23.328125 L 720.875 23.152344 L 720.851562 23.097656 L 720.085938 21.367188 L 719.496094 23.167969 L 719.492188 23.167969 C 719.414062 23.386719 717.65625 28.308594 711.195312 31.011719 C 710.488281 31.3125 709.128906 31.617188 707.640625 31.867188 C 706.148438 32.113281 704.503906 32.320312 703.125 32.480469 C 702.015625 32.609375 700.8125 32.703125 699.5625 32.773438 C 696.578125 32.773438 694.476562 32.773438 693.777344 32.773438 C 692.996094 32.773438 692.105469 32.777344 691.132812 32.792969 L 592.128906 32.792969 C 589.65625 32.792969 587.261719 33.34375 585.085938 34.335938 C 581.820312 35.832031 579.035156 38.3125 577.027344 41.496094 C 575.023438 44.667969 573.808594 48.601562 573.808594 52.789062 L 573.808594 100.167969 C 573.808594 102.953125 574.34375 105.644531 575.300781 108.058594 C 576.738281 111.6875 579.082031 114.699219 581.988281 116.816406 C 584.894531 118.9375 588.410156 120.175781 592.125 120.175781 L 670.382812 120.175781 C 670.710938 120.214844 671.046875 120.246094 671.390625 120.246094 L 671.601562 120.242188 L 671.605469 120.242188 C 672.265625 120.210938 672.941406 120.195312 673.628906 120.175781 L 690.796875 120.175781 C 691.765625 120.1875 692.667969 120.195312 693.480469 120.195312 C 694.039062 120.195312 696.1875 120.195312 699.316406 120.195312 C 700.152344 120.242188 700.96875 120.296875 701.738281 120.371094 C 702.664062 120.457031 704.535156 120.6875 706.398438 120.984375 C 708.253906 121.273438 710.148438 121.65625 710.984375 121.988281 C 713.839844 123.101562 715.910156 125.074219 717.261719 126.78125 C 717.9375 127.628906 718.433594 128.414062 718.757812 128.976562 C 718.921875 129.257812 719.039062 129.484375 719.117188 129.644531 L 719.203125 129.816406 L 719.226562 129.871094 L 719.992188 131.601562 L 720.582031 129.800781 L 720.585938 129.796875 C 720.660156 129.582031 722.421875 124.65625 728.882812 121.957031 C 729.59375 121.65625 730.949219 121.347656 732.4375 121.105469 C 733.929688 120.855469 735.570312 120.648438 736.953125 120.488281 C 738.066406 120.355469 739.269531 120.265625 740.523438 120.195312 C 743.5 120.195312 745.601562 120.195312 746.300781 120.195312 C 747.082031 120.195312 747.972656 120.1875 748.945312 120.175781 L 847.953125 120.175781 C 850.425781 120.175781 852.816406 119.625 854.988281 118.632812 C 858.253906 117.136719 861.042969 114.65625 863.046875 111.472656 C 865.050781 108.300781 866.265625 104.367188 866.269531 100.183594 Z M 864.8125 100.171875 C 864.8125 104.078125 863.675781 107.757812 861.820312 110.695312 C 859.953125 113.65625 857.378906 115.9375 854.382812 117.308594 C 852.394531 118.21875 850.210938 118.722656 847.953125 118.722656 L 748.921875 118.722656 C 747.960938 118.734375 747.074219 118.742188 746.300781 118.742188 C 745.597656 118.742188 743.484375 118.742188 740.492188 118.742188 L 740.453125 118.742188 C 739.175781 118.8125 737.941406 118.90625 736.785156 119.042969 C 735.390625 119.203125 733.730469 119.414062 732.195312 119.667969 C 730.65625 119.929688 729.261719 120.222656 728.320312 120.613281 C 724.722656 122.117188 722.4375 124.285156 721.066406 126.074219 C 720.527344 126.777344 720.128906 127.421875 719.84375 127.949219 C 718.675781 126.003906 716.035156 122.414062 711.507812 120.632812 C 710.417969 120.210938 708.53125 119.855469 706.625 119.546875 C 704.726562 119.246094 702.84375 119.015625 701.882812 118.925781 C 701.078125 118.84375 700.238281 118.789062 699.390625 118.742188 L 699.347656 118.742188 C 696.203125 118.742188 694.042969 118.742188 693.480469 118.742188 C 692.679688 118.742188 691.78125 118.734375 690.8125 118.722656 L 673.585938 118.722656 C 672.902344 118.742188 672.21875 118.757812 671.542969 118.789062 L 671.550781 118.789062 L 671.390625 118.789062 C 671.113281 118.789062 670.824219 118.765625 670.535156 118.726562 L 670.488281 118.722656 L 592.125 118.722656 C 588.734375 118.722656 585.519531 117.589844 582.847656 115.640625 C 580.167969 113.6875 577.992188 110.90625 576.65625 107.523438 C 575.765625 105.28125 575.261719 102.765625 575.261719 100.167969 L 575.261719 52.789062 C 575.261719 48.886719 576.402344 45.207031 578.257812 42.269531 C 580.121094 39.3125 582.695312 37.03125 585.695312 35.660156 C 587.683594 34.746094 589.871094 34.246094 592.128906 34.246094 L 691.152344 34.246094 C 692.117188 34.234375 693 34.226562 693.777344 34.226562 C 694.476562 34.226562 696.585938 34.226562 699.582031 34.226562 L 699.625 34.226562 C 700.898438 34.152344 702.136719 34.058594 703.289062 33.925781 C 704.683594 33.761719 706.347656 33.554688 707.882812 33.296875 C 709.421875 33.039062 710.8125 32.746094 711.757812 32.351562 C 716.777344 30.25 719.207031 26.898438 720.234375 25.015625 C 721.398438 26.964844 724.042969 30.550781 728.566406 32.332031 C 729.660156 32.753906 731.542969 33.113281 733.449219 33.417969 C 735.351562 33.722656 737.234375 33.949219 738.195312 34.042969 C 739 34.121094 739.835938 34.175781 740.6875 34.226562 L 740.730469 34.226562 C 743.875 34.226562 746.035156 34.226562 746.597656 34.226562 C 747.402344 34.226562 748.296875 34.238281 749.265625 34.246094 L 766.492188 34.246094 C 767.175781 34.226562 767.855469 34.210938 768.53125 34.179688 L 768.535156 34.179688 L 768.71875 34.175781 C 768.984375 34.175781 769.257812 34.203125 769.542969 34.238281 L 769.59375 34.246094 L 847.949219 34.246094 C 851.339844 34.246094 854.554688 35.375 857.230469 37.324219 C 859.910156 39.28125 862.085938 42.0625 863.425781 45.445312 C 864.3125 47.6875 864.816406 50.199219 864.816406 52.800781 L 864.816406 100.171875 Z M 864.8125 100.171875"/></g><g fill="#FFC1B2" fill-opacity=".302"><use x="619.588" y="86.992" xmlns:xlink="http://www.w3.org/1999/xlink" xlink:href="#b" xlink:type="simple" xlink:actuate="onLoad" xlink:show="embed"/></g><g fill="#FFC1B2" fill-opacity=".302"><use x="640.412" y="86.992" xmlns:xlink="http://www.w3.org/1999/xlink" xlink:href="#c" xlink:type="simple" xlink:actuate="onLoad" xlink:show="embed"/></g><g fill="#FFC1B2" fill-opacity=".302"><use x="667.854" y="86.992" xmlns:xlink="http://www.w3.org/1999/xlink" xlink:href="#d" xlink:type="simple" xlink:actuate="onLoad" xlink:show="embed"/></g><g fill="#FFC1B2" fill-opacity=".302"><use x="691.325" y="86.992" xmlns:xlink="http://www.w3.org/1999/xlink" xlink:href="#e" xlink:type="simple" xlink:actuate="onLoad" xlink:show="embed"/></g><g fill="#FFC1B2" fill-opacity=".302"><use x="710.002" y="86.992" xmlns:xlink="http://www.w3.org/1999/xlink" xlink:href="#f" xlink:type="simple" xlink:actuate="onLoad" xlink:show="embed"/></g><g fill="#FFC1B2" fill-opacity=".302"><use x="729.322" y="86.992" xmlns:xlink="http://www.w3.org/1999/xlink" xlink:href="#c" xlink:type="simple" xlink:actuate="onLoad" xlink:show="embed"/></g><g fill="#FFC1B2" fill-opacity=".302"><use x="756.764" y="86.992" xmlns:xlink="http://www.w3.org/1999/xlink" xlink:href="#g" xlink:type="simple" xlink:actuate="onLoad" xlink:show="embed"/></g><g fill="#FFC1B2" fill-opacity=".302"><use x="775.119" y="86.992" xmlns:xlink="http://www.w3.org/1999/xlink" xlink:href="#h" xlink:type="simple" xlink:actuate="onLoad" xlink:show="embed"/></g><g fill="#FFC1B2" fill-opacity=".302"><use x="789.18" y="86.992" xmlns:xlink="http://www.w3.org/1999/xlink" xlink:href="#c" xlink:type="simple" xlink:actuate="onLoad" xlink:show="embed"/></g><g fill="#FFC1B2" fill-opacity=".502"><use x="620.536" y="87.394" xmlns:xlink="http://www.w3.org/1999/xlink" xlink:href="#b" xlink:type="simple" xlink:actuate="onLoad" xlink:show="embed"/></g><g fill="#FFC1B2" fill-opacity=".502"><use x="641.359" y="87.394" xmlns:xlink="http://www.w3.org/1999/xlink" xlink:href="#c" xlink:type="simple" xlink:actuate="onLoad" xlink:show="embed"/></g><g fill="#FFC1B2" fill-opacity=".502"><use x="668.801" y="87.394" xmlns:xlink="http://www.w3.org/1999/xlink" xlink:href="#d" xlink:type="simple" xlink:actuate="onLoad" xlink:show="embed"/></g><g fill="#FFC1B2" fill-opacity=".502"><use x="692.272" y="87.394" xmlns:xlink="http://www.w3.org/1999/xlink" xlink:href="#e" xlink:type="simple" xlink:actuate="onLoad" xlink:show="embed"/></g><g fill="#FFC1B2" fill-opacity=".502"><use x="710.949" y="87.394" xmlns:xlink="http://www.w3.org/1999/xlink" xlink:href="#f" xlink:type="simple" xlink:actuate="onLoad" xlink:show="embed"/></g><g fill="#FFC1B2" fill-opacity=".502"><use x="730.269" y="87.394" xmlns:xlink="http://www.w3.org/1999/xlink" xlink:href="#c" xlink:type="simple" xlink:actuate="onLoad" xlink:show="embed"/></g><g fill="#FFC1B2" fill-opacity=".502"><use x="757.712" y="87.394" xmlns:xlink="http://www.w3.org/1999/xlink" xlink:href="#g" xlink:type="simple" xlink:actuate="onLoad" xlink:show="embed"/></g><g fill="#FFC1B2" fill-opacity=".502"><use x="776.066" y="87.394" xmlns:xlink="http://www.w3.org/1999/xlink" xlink:href="#h" xlink:type="simple" xlink:actuate="onLoad" xlink:show="embed"/></g><g fill="#FFC1B2" fill-opacity=".502"><use x="790.127" y="87.394" xmlns:xlink="http://www.w3.org/1999/xlink" xlink:href="#c" xlink:type="simple" xlink:actuate="onLoad" xlink:show="embed"/></g><g fill="#FFFAEF"><use x="621.483" y="87.796" xmlns:xlink="http://www.w3.org/1999/xlink" xlink:href="#b" xlink:type="simple" xlink:actuate="onLoad" xlink:show="embed"/></g><g fill="#FFFAEF"><use x="642.306" y="87.796" xmlns:xlink="http://www.w3.org/1999/xlink" xlink:href="#c" xlink:type="simple" xlink:actuate="onLoad" xlink:show="embed"/></g><g fill="#FFFAEF"><use x="669.749" y="87.796" xmlns:xlink="http://www.w3.org/1999/xlink" xlink:href="#d" xlink:type="simple" xlink:actuate="onLoad" xlink:show="embed"/></g><g fill="#FFFAEF"><use x="693.22" y="87.796" xmlns:xlink="http://www.w3.org/1999/xlink" xlink:href="#e" xlink:type="simple" xlink:actuate="onLoad" xlink:show="embed"/></g><g fill="#FFFAEF"><use x="711.896" y="87.796" xmlns:xlink="http://www.w3.org/1999/xlink" xlink:href="#f" xlink:type="simple" xlink:actuate="onLoad" xlink:show="embed"/></g><g fill="#FFFAEF"><use x="731.217" y="87.796" xmlns:xlink="http://www.w3.org/1999/xlink" xlink:href="#c" xlink:type="simple" xlink:actuate="onLoad" xlink:show="embed"/></g><g fill="#FFFAEF"><use x="758.659" y="87.796" xmlns:xlink="http://www.w3.org/1999/xlink" xlink:href="#g" xlink:type="simple" xlink:actuate="onLoad" xlink:show="embed"/></g><g fill="#FFFAEF"><use x="777.014" y="87.796" xmlns:xlink="http://www.w3.org/1999/xlink" xlink:href="#h" xlink:type="simple" xlink:actuate="onLoad" xlink:show="embed"/></g><g fill="#FFFAEF"><use x="791.075" y="87.796" xmlns:xlink="http://www.w3.org/1999/xlink" xlink:href="#c" xlink:type="simple" xlink:actuate="onLoad" xlink:show="embed"/></g></svg>